IKResults
version=1
nRows=7
nColumns=40
inDegrees=yes

Units are S.I. units (second, meters, Newtons, ...)
Angles are in degrees.

endheader
time	pelvis_tilt	pelvis_list	pelvis_rotation	pelvis_tx	pelvis_ty	pelvis_tz	hip_flexion_r	hip_adduction_r	hip_rotation_r	knee_angle_r	knee_angle_r_beta	ankle_angle_r	subtalar_angle_r	mtp_angle_r	hip_flexion_l	hip_adduction_l	hip_rotation_l	knee_angle_l	knee_angle_l_beta	ankle_angle_l	subtalar_angle_l	mtp_angle_l	lumbar_extension	lumbar_bending	lumbar_rotation	arm_flex_r	arm_add_r	arm_rot_r	elbow_flex_r	pro_sup_r	wrist_flex_r	wrist_dev_r	arm_flex_l	arm_add_l	arm_rot_l	elbow_flex_l	pro_sup_l	wrist_flex_l	wrist_dev_l
      1.74000000	     17.52649628	     -2.08895683	      5.04681445	      0.57349634	      0.95569741	      1.44881925	    -19.14413843	      5.41823019	    -13.58211932	    -12.83472541	     -0.22400822	      9.13763961	      1.52297476	     -3.73534497	     -0.48443612	      1.06356087	     -2.12173366	    -56.03292832	     -0.97795909	      7.63835985	     17.82793648	     11.66037488	    -21.68854624	      1.25203348	     -0.16111276	     -0.18498806	    -10.15805924	     -2.01056938	     37.55900785	     89.95437384	      0.00000000	      0.00000000	     -1.94078501	      7.90227896	     13.96634090	     18.20354336	     89.95437384	      0.00000000	      0.00000000
      1.75000000	     17.77173004	     -1.48052241	      4.14920505	      0.58353561	      0.95587693	      1.44946778	    -20.17517745	      4.60319612	    -12.47208243	    -12.79218855	     -0.22326581	      9.77409724	      1.07744920	     -3.61372025	     -0.34718083	      0.20484164	     -1.36255227	    -53.66066753	     -0.93655533	      8.24934443	     17.84575326	     11.44764372	    -22.07445996	      0.33911625	      0.61175185	     -0.07341626	    -10.37584023	     -2.32750572	     39.50730559	     89.95437384	      0.00000000	      0.00000000	     -2.50630543	      7.88708166	     14.32205088	     17.69399754	     89.95437384	      0.00000000	      0.00000000
      1.76000000	     17.31015213	     -1.53274360	      4.11682843	      0.59287993	      0.95458590	      1.44991857	    -20.11744383	      4.67833913	    -12.42364699	    -13.14266822	     -0.22938283	      9.97687684	      0.89693752	     -3.56021609	      1.15725484	      0.30562791	     -1.04272178	    -51.94030899	     -0.90652941	      8.38192548	     17.51924284	     11.21416473	    -21.66637327	      0.25844442	      0.49916343	      0.43368016	    -10.40491672	     -2.39104364	     40.78444407	     89.95437384	      0.00000000	      0.00000000	     -3.37998980	      8.02367887	     14.29234599	     17.56948459	     89.95437384	      0.00000000	      0.00000000
      1.77000000	     17.35057777	     -1.05193489	      3.52412923	      0.60282733	      0.95407051	      1.45021870	    -20.88450883	      4.05953064	    -11.56473810	    -13.16766760	     -0.22981915	     10.78628624	      0.48126737	     -3.52413548	      1.49614882	     -0.38043259	     -0.55289888	    -49.34233481	     -0.86118620	      9.17423157	     17.39509178	     10.93412975	    -21.82634687	     -0.44929303	      0.96595753	      0.46747266	    -10.65950020	     -2.56394252	     42.84620810	     89.95437384	      0.00000000	      0.00000000	     -3.97616490	      8.04283740	     14.57005553	     17.12889658	     89.95437384	      0.00000000	      0.00000000
      1.78000000	     16.84248347	     -1.18518399	      3.56481702	      0.61206605	      0.95245278	      1.45054961	    -20.78816367	      4.24151218	    -11.65903874	    -13.46150059	     -0.23494751	     10.96437099	      0.29563773	     -3.47363866	      2.95919395	     -0.10402687	     -0.03785255	    -47.32140687	     -0.82591436	      9.14334529	     17.05645587	     10.74404673	    -21.37594943	     -0.42193221	      0.78808355	      0.99265641	    -10.66225579	     -2.63781637	     44.06178949	     89.95437384	      0.00000000	      0.00000000	     -4.80649194	      8.17912334	     14.54159473	     17.02558227	     89.95437384	      0.00000000	      0.00000000
      1.79000000	     17.14041573	     -0.60691317	      2.69515823	      0.62208290	      0.95228124	      1.45104986	    -21.85869019	      3.43520017	    -10.49347903	    -13.46692969	     -0.23504226	     11.66898610	     -0.18403801	     -3.46311902	      2.59824198	     -0.86744116	      0.64702162	    -43.88998800	     -0.76602480	      9.68464663	     16.71580688	     10.39690941	    -21.81978600	     -1.29175817	      1.54830779	      0.93932402	    -10.88770014	     -2.92156114	     46.10287890	     89.95437384	      0.00000000	      0.00000000	     -5.19367606	      8.14830705	     14.98279861	     16.47733602	     89.95437384	      0.00000000	      0.00000000
      1.80000000	     17.29665836	     -0.33432135	      2.19651240	      0.63206419	      0.95175911	      1.45155598	    -22.77831944	      3.08005144	     -9.94433316	    -13.29164232	     -0.23198292	     11.67060596	     -0.95464468	     -3.31584155	      2.56960828	     -1.03512820	      1.66372414	    -40.59911344	     -0.70858820	      9.46712684	     16.37649002	      9.68798057	    -22.05634312	     -1.80011455	      1.84268462	      1.24129321	    -11.00419129	     -2.98051598	     47.53812414	     89.95437384	      0.00000000	      0.00000000	     -5.86844553	      8.18210910	     15.37668154	     16.31049433	     89.95437384	      0.00000000	      0.00000000
